<?xml version="1.0" standalone="no"?>
<!DOCTYPE svg PUBLIC "-//W3C//DTD SVG 20010904//EN"
 "http://www.w3.org/TR/2001/REC-SVG-20010904/DTD/svg10.dtd">
<svg version="1.0" xmlns="http://www.w3.org/2000/svg"
 width="512.000000pt" height="512.000000pt" viewBox="0 0 512.000000 512.000000"
 preserveAspectRatio="xMidYMid meet">
<metadata>
Created by potrace 1.14, written by Peter Selinger 2001-2017
</metadata>
<g transform="translate(0.000000,512.000000) scale(0.100000,-0.100000)"
fill="#000000" stroke="none">
<path d="M2528 5015 c-1 -1 -21 -5 -43 -8 -315 -44 -1148 -477 -1670 -867
-217 -162 -336 -280 -380 -375 -35 -75 -70 -222 -89 -375 -3 -25 -8 -67 -12
-94 -3 -28 -8 -70 -9 -95 -10 -139 -19 -282 -19 -328 -1 -29 -3 -53 -6 -53 -8
0 -5 -454 3 -467 4 -6 3 -15 -3 -18 -8 -5 -7 -11 1 -22 10 -11 10 -16 0 -23
-8 -4 -9 -10 -3 -13 5 -4 10 -39 11 -79 2 -40 4 -91 6 -113 2 -22 6 -76 9
-120 21 -289 78 -544 143 -638 112 -161 556 -490 999 -739 573 -323 1009 -490
1169 -447 17 5 41 10 55 12 194 34 691 267 1120 525 236 142 558 365 664 461
75 68 169 166 191 201 55 88 114 351 131 590 2 36 7 108 11 160 4 52 7 112 7
133 0 20 3 37 6 37 7 0 4 563 -4 680 -3 52 -8 124 -11 160 -3 36 -8 92 -10
125 -3 33 -7 76 -10 95 -2 19 -7 55 -10 80 -3 25 -7 56 -10 70 -2 14 -7 39
-10 55 -11 68 -17 89 -41 168 -15 45 -39 101 -55 124 -41 59 -150 166 -254
248 -27 22 -52 42 -55 45 -14 15 -221 160 -229 160 -5 0 -11 4 -13 8 -6 15
-319 210 -493 307 -150 84 -505 265 -520 265 -2 0 -28 11 -57 24 -58 26 -214
86 -238 92 -8 2 -49 12 -91 24 -70 18 -173 33 -181 25z m247 -189 c499 -171
1448 -735 1710 -1018 32 -34 68 -85 80 -113 25 -56 53 -169 61 -247 3 -29 7
-58 9 -65 2 -7 7 -45 10 -85 3 -40 8 -89 10 -108 19 -173 27 -846 12 -1070
-12 -180 -17 -244 -22 -285 -3 -22 -10 -72 -15 -112 -13 -99 -48 -240 -72
-288 -92 -183 -747 -629 -1373 -935 -371 -182 -561 -240 -700 -215 -193 34
-623 234 -1060 492 -137 81 -500 316 -515 333 -3 3 -23 19 -46 35 -118 86
-271 232 -297 284 -16 32 -46 127 -53 168 -2 13 -6 35 -9 50 -13 70 -20 117
-30 213 -6 55 -8 94 -21 295 -14 219 -7 845 11 1005 2 19 6 73 10 119 3 47 8
87 10 90 1 3 6 35 10 71 4 36 9 68 11 72 3 4 7 26 10 50 13 91 55 177 124 248
325 338 1369 937 1835 1054 11 3 58 3 105 2 67 -2 109 -11 195 -40z"/>
<path d="M2470 4806 c-474 -106 -1721 -856 -1856 -1117 -28 -56 -56 -164 -69
-276 -3 -26 -8 -57 -10 -68 -2 -11 -7 -54 -10 -95 -3 -41 -8 -88 -10 -105 -24
-189 -24 -834 0 -1143 7 -82 16 -176 20 -202 2 -14 6 -46 9 -72 10 -83 45
-217 70 -266 22 -44 102 -129 186 -199 252 -210 781 -536 1190 -732 346 -165
540 -222 655 -190 21 6 45 12 54 14 21 5 147 49 186 65 17 7 44 18 60 25 227
95 539 261 850 452 347 213 592 402 695 535 35 46 79 203 94 338 4 30 9 75 11
100 7 65 13 133 22 272 9 140 9 737 0 873 -8 111 -17 218 -23 268 -14 117 -23
183 -28 213 -12 60 -40 159 -52 182 -35 68 -151 182 -298 293 -69 52 -313 219
-319 219 -3 0 -31 17 -63 39 -177 117 -584 338 -814 442 -277 125 -428 162
-550 135z"/>
</g>
</svg>
